<?xml version="1.0" standalone="no"?><svg xmlns="http://www.w3.org/2000/svg" viewBox="0 0 1440 320"><path fill="#2929299f" fill-opacity="1" d="M0,256L20,256C40,256,80,256,120,250.7C160,245,200,235,240,234.7C280,235,320,245,360,245.3C400,245,440,235,480,197.3C520,160,560,96,600,85.3C640,75,680,117,720,160C760,203,800,245,840,261.3C880,277,920,267,960,240C1000,213,1040,171,1080,149.3C1120,128,1160,128,1200,112C1240,96,1280,64,1320,90.7C1360,117,1400,203,1420,245.3L1440,288L1440,320L1420,320C1400,320,1360,320,1320,320C1280,320,1240,320,1200,320C1160,320,1120,320,1080,320C1040,320,1000,320,960,320C920,320,880,320,840,320C800,320,760,320,720,320C680,320,640,320,600,320C560,320,520,320,480,320C440,320,400,320,360,320C320,320,280,320,240,320C200,320,160,320,120,320C80,320,40,320,20,320L0,320Z"></path></svg>